<svg xmlns="http://www.w3.org/2000/svg" width="760" height="360" viewBox="0 0 760 360">
  <!-- Negativo: marcas blancas sobre fondo cian de marca. Layout nuevo. -->
  <rect width="760" height="360" fill="#1EB4DC"/>
  <text x="380" y="78" text-anchor="middle" font-family="Avenir Next" font-weight="600" font-size="19" letter-spacing="9" fill="#eaf8fd">ENCICLOPEDIA DE BUCEO</text>
  <text x="380" y="210" text-anchor="middle" font-family="Avenir Next" font-weight="800" font-size="90" letter-spacing="1" fill="#ffffff">SCUBAPEDIA</text>
  <g transform="translate(-28,18) scale(2.95)">
    <path d="M224.1 63.4 C210 91 169.7 73.3 155 69 C152 68.9 148 68.8 145.7 68.8 C139.5 70.4 134.2 75.2 131.6 81.2 C137.7 77.7 145.4 74 154.6 76.3 C165 78.9 172.1 83.4 180.2 85.1 C193.1 88 211.3 89.2 220.7 77.8 C223 75 224.3 71.6 224.5 68 C224.5 67.1 224.8 65.2 224.1 63.4 Z" fill="#ffffff"/>
  </g>
</svg>
