<svg width="64" height="64" viewBox="0 0 64 64" xmlns="http://www.w3.org/2000/svg">
  <rect width="64" height="64" rx="12" fill="#0d1b2a"/>
  <!-- Máscara -->
  <path d="M 8 32 Q 7 20 16 15 Q 25 11 31 14 Q 34 15 36 20 Q 38 15 41 14 Q 47 11 56 15 Q 65 20 64 32 Q 63 41 55 44 Q 49 47 44 44 L 42 47 Q 40 51 36 51 Q 32 51 30 47 L 28 44 Q 17 40 8 32 Z" fill="#1FB4D1" fill-opacity="0.15" stroke="#1FB4D1" stroke-width="2"/>
  <!-- Cristal izquierdo -->
  <path d="M 10 30 Q 9 19 18 15 Q 26 11 32 14 Q 36 17 36 23 Q 36 29 33 34 Q 30 39 24 41 Q 16 42 12 37 Q 8 34 10 30 Z" fill="#0A2840" stroke="#1FB4D1" stroke-width="1.5"/>
  <path d="M 14 18 Q 19 14 25 16 Q 21 17 17 22 Z" fill="#1FB4D1" fill-opacity="0.4"/>
  <!-- Cristal derecho -->
  <path d="M 37 23 Q 38 16 44 14 Q 50 11 57 15 Q 64 19 64 30 Q 64 35 57 39 Q 51 43 46 41 Q 38 37 37 31 Q 36 27 37 23 Z" fill="#0A2840" stroke="#1FB4D1" stroke-width="1.5"/>
  <path d="M 40 16 Q 46 12 52 14 Q 48 16 43 21 Z" fill="#1FB4D1" fill-opacity="0.4"/>
  <!-- Puente -->
  <path d="M 36 22 L 37 22 L 37 32 L 36 32 Z" fill="#1FB4D1" fill-opacity="0.6"/>
  <!-- Burbujas -->
  <circle cx="10" cy="14" r="3" fill="none" stroke="#1FB4D1" stroke-width="1" stroke-opacity="0.5"/>
  <circle cx="6" cy="7" r="2" fill="none" stroke="#1FB4D1" stroke-width="0.8" stroke-opacity="0.3"/>
</svg>
