<svg width="280" height="48" viewBox="0 0 280 48" xmlns="http://www.w3.org/2000/svg">
  <!-- Versión horizontal transparente — para navbar oscuro -->

  <!-- Máscara mini -->
  <path d="M 4 24 Q 3 14 10 10 Q 18 7 24 9 Q 27 10 29 14 Q 31 10 34 9 Q 40 7 48 10 Q 55 14 54 24 Q 53 32 46 35 Q 41 37 37 35 L 35 37 Q 33 40 29 40 Q 25 40 23 37 L 21 35 Q 14 32 4 24 Z" fill="#1FB4D1" fill-opacity="0.12" stroke="#1FB4D1" stroke-width="1.6"/>

  <!-- Cristal izquierdo -->
  <path d="M 7 23 Q 6 14 13 11 Q 20 8 25 10 Q 28 12 29 17 Q 29 22 27 27 Q 25 31 20 33 Q 14 34 10 30 Q 6 27 7 23 Z" fill="#0A2840" stroke="#1FB4D1" stroke-width="1.1"/>
  <path d="M 10 14 Q 14 11 19 12 Q 16 13 13 17 Z" fill="#1FB4D1" fill-opacity="0.35"/>

  <!-- Cristal derecho -->
  <path d="M 30 17 Q 31 12 36 10 Q 41 8 47 11 Q 52 14 52 23 Q 52 27 46 30 Q 41 34 37 32 Q 31 29 30 24 Q 29 21 30 17 Z" fill="#0A2840" stroke="#1FB4D1" stroke-width="1.1"/>
  <path d="M 33 12 Q 37 9 42 10 Q 39 12 35 16 Z" fill="#1FB4D1" fill-opacity="0.35"/>

  <!-- Puente nasal -->
  <path d="M 29 17 Q 29 21 29 24 Q 29 27 29 30 L 31 30 Q 31 27 31 24 Q 31 21 31 17 Z" fill="#1FB4D1" fill-opacity="0.5"/>

  <!-- Correas -->
  <path d="M 4 22 Q 0 20 -2 23 Q -3 26 -1 29" fill="none" stroke="#1FB4D1" stroke-width="1.4" stroke-linecap="round" stroke-opacity="0.6"/>
  <path d="M 54 22 Q 58 20 60 23 Q 61 26 59 29" fill="none" stroke="#1FB4D1" stroke-width="1.4" stroke-linecap="round" stroke-opacity="0.6"/>

  <!-- Burbujas -->
  <circle cx="0" cy="13" r="2.5" fill="none" stroke="#1FB4D1" stroke-width="0.8" stroke-opacity="0.4"/>
  <circle cx="-3" cy="6" r="1.5" fill="none" stroke="#1FB4D1" stroke-width="0.6" stroke-opacity="0.25"/>

  <!-- Wordmark -->
  <text x="72" y="30" font-family="Georgia, serif" font-size="22" font-weight="700" fill="#FFFFFF" letter-spacing="-0.3">Scuba-pedia</text>
  <line x1="72" y1="36" x2="270" y2="36" stroke="#1FB4D1" stroke-width="0.5" stroke-opacity="0.3"/>
  <text x="72" y="45" font-family="Arial, Helvetica, sans-serif" font-size="8" fill="#D4AF37" letter-spacing="0.18em">LA ENCICLOPEDIA DEL BUCEO</text>
</svg>
